<svg width="144" height="27" viewBox="0 0 144 27" fill="none" xmlns="http://www.w3.org/2000/svg">
<g clip-path="url(#clip0_81_912)">
<mask id="mask0_81_912" style="mask-type:luminance" maskUnits="userSpaceOnUse" x="0" y="0" width="28" height="27">
<path d="M0 0H27.104V27H0V0Z" fill="white"/>
</mask>
<g mask="url(#mask0_81_912)">
<path fill-rule="evenodd" clip-rule="evenodd" d="M2.07617 6.30578L8.91087 2.33503L8.91499 13.4702C8.90227 17.5971 11.7976 21.2991 15.7993 22.273L15.8889 22.2948L15.8317 22.3669C15.7411 22.4857 15.654 22.5994 15.5467 22.7059C15.1845 23.0644 14.786 23.3899 14.3625 23.673C13.9356 23.9584 13.4797 24.2034 13.0071 24.4007C12.5256 24.6016 12.0224 24.7556 11.5121 24.858C10.9734 24.966 10.5077 25.0147 10.009 25.0147C9.99302 25.0147 9.97672 25.0147 9.9606 25.0147C9.41764 25.0127 8.87666 24.9569 8.35287 24.8482C7.84305 24.743 7.34094 24.5859 6.8605 24.3818C6.39027 24.1821 5.93563 23.9346 5.50946 23.6461C5.08706 23.3597 4.69082 23.0319 4.33165 22.6717C3.97106 22.3105 3.64414 21.9137 3.36057 21.4924C3.07395 21.067 2.82818 20.6129 2.63005 20.1423C2.42871 19.6646 2.27429 19.1636 2.17111 18.6531C2.05969 18.1024 2.04625 17.5336 2.04787 17.0498L2.04679 6.32291L2.07617 6.30578ZM19.2726 20.3384C19.6677 19.2271 19.8698 18.1397 19.873 17.1067V5.34686L25.0543 2.3832V13.5196C25.0529 14.0246 25.0058 14.503 24.9144 14.9411C24.8202 15.393 24.6803 15.8368 24.499 16.2601C24.3202 16.6772 24.0995 17.0791 23.8432 17.4543C23.5888 17.8271 23.2968 18.1775 22.9753 18.4961C22.6532 18.8147 22.2996 19.1036 21.9241 19.3543C21.5461 19.6074 21.1409 19.8249 20.7196 20.0008C20.2945 20.1837 19.8981 20.305 19.3947 20.406C19.3777 20.4094 19.3585 20.4128 19.3387 20.4162L19.2389 20.4337L19.2726 20.3384ZM0 5.22927L0.00483663 17.0443C-0.0116437 22.5173 4.44487 26.9834 9.93893 27.0002H9.96902C11.7147 27.0002 13.4324 26.5437 14.9364 25.681L22.2032 21.5216C25.2161 19.9648 27.0927 16.901 27.1029 13.525L27.104 1.18518C27.104 1.15003 27.085 1.11719 27.0545 1.09953L25.2745 0.0624529C25.244 0.0446092 25.2059 0.0446092 25.175 0.0617392L17.8742 4.16614C17.8429 4.18363 17.8235 4.21682 17.8235 4.25269L17.8298 17.0985C17.8284 17.6387 17.7723 18.1775 17.663 18.7004C17.557 19.2089 17.3997 19.7089 17.1951 20.1867C17.1568 20.2758 17.1168 20.3643 17.0753 20.4519L17.0568 20.4908L17.014 20.4853C16.8906 20.4692 16.8093 20.454 16.5922 20.4134L16.5347 20.4025C16.0777 20.3088 15.1473 20.0451 14.0382 19.3313C13.6626 19.0769 13.3106 18.7858 12.9914 18.4655C12.6713 18.1449 12.3812 17.7927 12.1296 17.4188C11.8748 17.0407 11.6566 16.6376 11.4811 16.2206C11.3023 15.7961 11.1655 15.3513 11.0739 14.8993C10.9922 14.4957 10.9582 14.0771 10.9602 13.4998V1.17554C10.9602 1.14057 10.9423 1.10863 10.9122 1.09025L9.13407 0.0144534C9.11813 0.0048178 9.10022 0 9.08212 0C9.06511 0 9.04791 0.00446092 9.03268 0.0132043L0.0499786 5.14309C0.0193465 5.16075 0 5.19376 0 5.22927Z" fill="#889494"/>
</g>
<path fill-rule="evenodd" clip-rule="evenodd" d="M49.6913 14.9762C49.6913 17.0539 47.913 18.6814 45.6429 18.6814C43.3648 18.6814 41.6466 17.0885 41.6466 14.9762V6.62249H39.6016V14.9949C39.6016 18.2166 42.1422 20.5548 45.6429 20.5548C49.174 20.5548 51.7369 18.2166 51.7369 14.9949L51.7383 6.61768H49.6913V14.9762Z" fill="#889494"/>
<path fill-rule="evenodd" clip-rule="evenodd" d="M67.3055 13.4956C67.3055 16.6407 65.4432 18.5184 62.3241 18.5184L59.919 18.5116V8.48917H62.3241C65.4432 8.48917 67.3055 10.3606 67.3055 13.4956ZM62.4543 6.62415L57.9047 6.61719H57.8721V20.3822H62.4271C66.6266 20.3822 69.3403 17.679 69.3403 13.4956C69.3403 9.32158 66.6375 6.6245 62.4543 6.62415Z" fill="#889494"/>
<path fill-rule="evenodd" clip-rule="evenodd" d="M141.026 6.61768L137.017 12.3981L132.979 6.63159L132.969 6.61768H130.665L135.998 14.5201V20.3823H138.044V14.5189L143.275 6.66817L143.308 6.61768H141.026Z" fill="#889494"/>
<path fill-rule="evenodd" clip-rule="evenodd" d="M115.745 8.48918H120.454V20.3822L122.499 20.3816L122.501 8.48918H127.209V6.61755H115.745V8.48918Z" fill="#889494"/>
<mask id="mask1_81_912" style="mask-type:luminance" maskUnits="userSpaceOnUse" x="0" y="0" width="144" height="27">
<path d="M0 27H143.308V0H0V27Z" fill="white"/>
</mask>
<g mask="url(#mask1_81_912)">
<path fill-rule="evenodd" clip-rule="evenodd" d="M108.256 20.3808H110.303V6.6189H108.256V20.3808Z" fill="#889494"/>
</g>
<mask id="mask2_81_912" style="mask-type:luminance" maskUnits="userSpaceOnUse" x="0" y="0" width="144" height="27">
<path d="M0 27H143.308V0H0V27Z" fill="white"/>
</mask>
<g mask="url(#mask2_81_912)">
<path fill-rule="evenodd" clip-rule="evenodd" d="M100.675 17.0569C100.66 17.0731 99.1378 18.6764 96.7126 18.6764C93.89 18.6764 91.7614 16.4097 91.7614 13.4036C91.7614 10.5136 93.8741 8.3342 96.6756 8.3342C98.9477 8.3342 100.382 9.66212 100.396 9.67551L100.686 9.9503L101.776 8.455L101.579 8.24462C101.511 8.17128 99.8693 6.45044 96.6386 6.45044C92.698 6.45044 89.7266 9.44764 89.7266 13.4223C89.7266 17.4916 92.722 20.5602 96.6944 20.5602C100.02 20.5602 101.861 18.5144 101.938 18.4273L102.134 18.205L100.95 16.7611L100.675 17.0569Z" fill="#889494"/>
</g>
<mask id="mask3_81_912" style="mask-type:luminance" maskUnits="userSpaceOnUse" x="0" y="0" width="144" height="27">
<path d="M0 27H143.308V0H0V27Z" fill="white"/>
</mask>
<g mask="url(#mask3_81_912)">
<path fill-rule="evenodd" clip-rule="evenodd" d="M81.3458 14.2517L77.2755 15.0803L79.4795 9.67369L81.3458 14.2517ZM80.4177 6.62402H78.5416L72.9531 20.3863H75.1128L76.3504 17.3499L82.1293 16.1734L83.8382 20.366L83.8465 20.3863H86.0061L80.4259 6.64437L80.4177 6.62402Z" fill="#889494"/>
</g>
</g>
<defs>
<clipPath id="clip0_81_912">
<rect width="144" height="27" fill="white"/>
</clipPath>
</defs>
</svg>
