<svg width="136" height="27" viewBox="0 0 136 27" fill="none" xmlns="http://www.w3.org/2000/svg">
<path d="M124.452 20.9028L124.276 20.9619C123.137 21.3405 121.452 21.9234 119.94 22.6186C119.859 22.6566 119.805 22.7628 119.805 22.7628C119.777 22.8275 119.742 22.9077 119.703 22.9984L119.697 23.01C119.527 23.3956 119.294 23.9759 119.194 24.2119L119.116 24.3979C119.104 24.4274 119.111 24.4614 119.134 24.4837C119.148 24.497 119.165 24.5045 119.186 24.5052C119.197 24.5052 119.209 24.503 119.22 24.4972L119.403 24.4105C119.817 24.2136 120.341 23.915 120.89 23.654L120.909 23.645C121.954 23.1496 123.133 22.5902 123.843 22.2519C123.843 22.2514 123.957 22.1905 124.015 22.0764L124.546 21.0104C124.56 20.9825 124.556 20.9489 124.536 20.9251C124.515 20.9018 124.482 20.8931 124.452 20.9028V20.9028ZM120.206 19.2505C120.28 19.1049 120.625 18.4417 120.703 18.2934L120.717 18.2679C123.024 13.9161 125.836 9.81173 129.072 6.0685L129.162 5.96525C129.175 5.9493 129.183 5.92971 129.186 5.90899C129.188 5.88828 129.184 5.86736 129.174 5.84891C129.153 5.81109 129.11 5.79049 129.069 5.79607L128.934 5.81449C126.81 6.10703 124.66 6.51229 122.543 7.01836C122.333 7.07702 122.197 7.21396 122.168 7.24571C120.583 9.14351 119.082 11.1414 117.706 13.1883C117.637 13.2918 117.629 13.539 117.629 13.539C117.629 13.539 117.976 16.2044 118.481 18.1686C117.23 21.7681 116.112 26.5118 116.112 26.5118C116.108 26.527 116.107 26.5429 116.11 26.5585C116.113 26.574 116.119 26.5887 116.128 26.6015C116.147 26.6275 116.177 26.6425 116.209 26.6435H116.921C116.967 26.6442 117.006 26.6173 117.022 26.5758L117.071 26.4425C117.798 24.4592 118.627 22.5003 119.543 20.5921C119.757 20.1476 120.206 19.2505 120.206 19.2505V19.2505Z" fill="#889494"/>
<path d="M130.118 6.8464L130.116 6.71067C130.115 6.66801 130.088 6.62972 130.049 6.61542C130.009 6.60039 129.963 6.61178 129.936 6.6445L129.847 6.74727C126.073 11.1117 122.901 15.9561 120.42 21.1453L120.362 21.2665C120.343 21.3048 120.351 21.3511 120.379 21.3819C120.399 21.4022 120.425 21.4134 120.453 21.4136C120.466 21.4141 120.481 21.4114 120.494 21.4061L120.618 21.3545C122.738 20.4764 124.903 19.7155 127.053 19.0941C127.182 19.0568 127.291 18.9668 127.351 18.8478C128.294 17.0104 130.483 13.4533 130.483 13.4533C130.539 13.3731 130.525 13.2543 130.525 13.2543C130.525 13.2543 130.141 8.99942 130.118 6.8464V6.8464Z" fill="#889494"/>
<path d="M134.997 0.710546C134.461 0.245913 133.684 0.0275334 132.476 0.0015993C131.381 -0.0219111 130.078 0.21392 128.603 0.700366C128.382 0.777926 128.206 0.900325 128.049 1.05545C126.539 2.47363 125.091 3.95708 123.71 5.50157L123.604 5.61912C123.575 5.65233 123.571 5.7008 123.592 5.7391C123.614 5.77788 123.66 5.79775 123.703 5.78806L123.858 5.75533C126.081 5.28004 128.326 4.91672 130.527 4.6758C130.672 4.6598 130.822 4.70828 130.93 4.80692C131.038 4.90654 131.1 5.04833 131.097 5.19593C131.061 7.38119 131.14 9.57734 131.335 11.7241L131.347 11.8641C131.352 11.907 131.381 11.9427 131.424 11.9541C131.432 11.9563 131.439 11.9577 131.449 11.9579C131.481 11.9584 131.516 11.9427 131.535 11.9141L131.616 11.799C132.857 10.0289 134.207 8.30827 135.627 6.68096C135.786 6.49991 135.827 6.38478 135.857 6.22045C136.304 3.35994 135.614 1.24571 134.997 0.710546ZM105.893 2.59768H108.244V20.291H106.087V19.0549H106.038C105.214 20.0002 103.711 20.6546 102.402 20.6546C99.0092 20.6546 96.8279 17.9885 96.8279 13.8681C96.8279 9.91739 99.1304 7.08161 102.378 7.08161C103.663 7.08161 104.996 7.68755 105.844 8.68128H105.893V2.59768ZM105.893 12.2684C105.893 10.5476 104.535 9.23875 102.766 9.23875C100.463 9.23875 99.1789 10.9111 99.1789 13.8681C99.1789 16.8493 100.463 18.5217 102.766 18.5217C104.535 18.5217 105.893 17.3098 105.893 15.7102V12.2684ZM95.3736 13.8681C95.3736 17.9642 93.0711 20.6546 89.5567 20.6546C85.9938 20.6546 83.6671 17.9642 83.6671 13.8681C83.6671 9.86892 86.0665 7.08161 89.5567 7.08161C92.9984 7.08161 95.3736 9.86892 95.3736 13.8681ZM93.0469 13.8681C93.0469 11.0566 91.6896 9.23875 89.5567 9.23875C87.3511 9.23875 85.9938 11.0081 85.9938 13.8681C85.9938 16.7281 87.3511 18.5217 89.5567 18.5217C91.6896 18.5217 93.0469 16.7039 93.0469 13.8681ZM82.2128 13.8681C82.2128 17.9642 79.9103 20.6546 76.3959 20.6546C72.833 20.6546 70.5062 17.9642 70.5062 13.8681C70.5062 9.86892 72.9057 7.08161 76.3959 7.08161C79.8376 7.08161 82.2128 9.86892 82.2128 13.8681ZM79.886 13.8681C79.886 11.0566 78.5287 9.23875 76.3959 9.23875C74.1903 9.23875 72.833 11.0081 72.833 13.8681C72.833 16.7281 74.1903 18.5217 76.3959 18.5217C78.5287 18.5217 79.886 16.7039 79.886 13.8681ZM64.2288 7.08161C62.7988 7.08161 61.3445 7.76026 60.6659 8.72976H60.6174V2.59768H58.2664V20.291H60.6174V12.22C60.6174 10.4749 61.8777 9.26298 63.6713 9.26298C65.4406 9.26298 66.4586 10.4264 66.4586 12.4381V20.291H68.8096V11.8564C68.8096 8.92366 67.0403 7.08161 64.2288 7.08161ZM51.2133 7.08161C49.8561 7.08161 48.4018 7.73602 47.6989 8.68128H47.6505V7.44517H45.3479V20.291H47.6989V12.22C47.6989 10.4021 48.8866 9.26298 50.7528 9.26298C52.5949 9.26298 53.4674 10.3294 53.4674 12.5593V20.291H55.8427V11.8806C55.8427 8.92366 54.0491 7.08161 51.2133 7.08161ZM40.3308 7.44517H42.6818V20.291H40.3308V7.44517ZM40.2339 2.59768H42.7788V5.09414H40.2339V2.59768ZM38.3918 13.8681C38.3918 17.9885 36.2105 20.6546 32.8173 20.6546C31.5084 20.6546 30.0057 20.0002 29.1817 19.0549H29.1332V20.291H26.9761V2.59768H29.3271V8.68128H29.3756C30.2239 7.71178 31.5812 7.08161 32.8657 7.08161C36.1135 7.08161 38.3918 9.86892 38.3918 13.8681ZM36.0408 13.8681C36.0408 10.9111 34.7562 9.23875 32.4537 9.23875C30.6844 9.23875 29.3271 10.5476 29.3271 12.2684V15.7102C29.3271 17.3098 30.6844 18.5217 32.4537 18.5217C34.7562 18.5217 36.0408 16.8493 36.0408 13.8681ZM25.1583 13.8681C25.1583 17.9642 22.8557 20.6546 19.3413 20.6546C15.7785 20.6546 13.4517 17.9642 13.4517 13.8681C13.4517 9.86892 15.8512 7.08161 19.3413 7.08161C22.783 7.08161 25.1583 9.86892 25.1583 13.8681ZM22.8315 13.8681C22.8315 11.0566 21.4742 9.23875 19.3413 9.23875C17.1357 9.23875 15.7785 11.0081 15.7785 13.8681C15.7785 16.7281 17.1357 18.5217 19.3413 18.5217C21.4742 18.5217 22.8315 16.7039 22.8315 13.8681ZM9.25645 12.6225C11.051 13.2845 11.8763 14.8924 11.8763 17.6007V20.291H9.52525V17.6007C9.52525 14.6437 8.55576 13.5773 5.88966 13.5773H2.42373V20.291H0V3.3248H6.64101C10.1312 3.3248 12.361 5.23956 12.361 8.24501C12.361 10.4608 11.0961 11.9781 9.25645 12.6225ZM9.91304 8.48738C9.91304 6.52415 8.72542 5.53041 6.42288 5.53041H2.42373V11.4201H6.44711C8.70118 11.4201 9.91304 10.3779 9.91304 8.48738Z" fill="#889494"/>
<path d="M132.477 0.0015993C133.684 0.0275334 134.461 0.245913 134.997 0.710546C135.614 1.24571 136.304 3.35995 135.857 6.22045C135.828 6.38478 135.786 6.49991 135.627 6.68097C134.208 8.30827 132.857 10.0289 131.617 11.799L131.536 11.9141C131.516 11.9427 131.482 11.9584 131.449 11.958C131.44 11.9577 131.432 11.9563 131.425 11.9541C131.382 11.9427 131.352 11.9071 131.348 11.8642L131.335 11.7241C131.141 9.57734 131.061 7.38119 131.098 5.19593C131.101 5.04833 131.039 4.90654 130.93 4.80692C130.822 4.70828 130.673 4.6598 130.528 4.6758C128.326 4.91672 126.082 5.28004 123.858 5.75534L123.704 5.78806C123.66 5.79775 123.615 5.77788 123.593 5.7391C123.571 5.7008 123.575 5.65233 123.605 5.61912L123.711 5.50157C125.092 3.95708 126.539 2.47363 128.049 1.05545C128.207 0.900325 128.382 0.777926 128.604 0.700366C130.079 0.21392 131.381 -0.0219111 132.477 0.0015993Z" fill="#889494"/>
</svg>
