<svg width="65" height="25" viewBox="0 0 65 25" fill="none" xmlns="http://www.w3.org/2000/svg">
<path d="M57.4784 3.59861C53.4792 3.59861 50.2248 6.86701 50.2248 10.885C50.2248 14.9029 53.4792 18.1713 57.4784 18.1713C61.4766 18.1713 64.73 14.9029 64.73 10.885C64.73 6.86701 61.4766 3.59861 57.4784 3.59861V3.59861ZM57.4784 14.7181C55.3751 14.7181 53.6621 12.9967 53.6621 10.885C53.6621 8.77232 55.3751 7.05182 57.4784 7.05182C59.5797 7.05182 61.2937 8.77232 61.2937 10.885C61.2937 12.9976 59.5807 14.7181 57.4774 14.7181H57.4784ZM36.1193 9.4093L34.851 8.77326C34.3003 8.49933 33.9551 8.28732 33.8163 8.13065C33.6839 7.99183 33.6086 7.80834 33.6052 7.61656C33.6052 7.37078 33.7159 7.16345 33.9335 7.0021C34.1493 6.83324 34.4561 6.75631 34.8454 6.75631C35.5574 6.75631 36.3464 7.18597 37.2151 8.05185L39.3558 5.90075C38.8298 5.18444 38.1419 4.60262 37.3483 4.20276C36.565 3.80868 35.6996 3.60551 34.8229 3.60987C33.5161 3.60987 32.4372 3.99544 31.5967 4.7722C30.7571 5.54896 30.3349 6.48238 30.3349 7.57716C30.3349 9.27515 31.4466 10.6898 33.6774 11.8128L34.8454 12.3991C35.852 12.9085 36.3529 13.4273 36.3529 13.9639C36.3529 14.2547 36.2131 14.5061 35.9355 14.7294C35.6578 14.9536 35.29 15.0596 34.8341 15.0596C34.412 15.0596 33.9279 14.9142 33.3829 14.6187C32.8398 14.3279 32.3566 13.937 31.9588 13.4667L29.8293 15.7969C31.0301 17.373 32.6314 18.1666 34.6446 18.1666C36.1578 18.1666 37.3652 17.7529 38.2601 16.9311C39.1607 16.1103 39.611 15.0821 39.611 13.8522C39.611 12.9301 39.3615 12.1205 38.8661 11.4328C38.3661 10.7452 37.4486 10.0754 36.1193 9.41024V9.4093ZM14.5839 16.584V3.88849H11.1411V4.73842C9.98099 3.99278 8.63068 3.59707 7.25164 3.59861C3.25339 3.59861 0 6.86701 0 10.885C0 14.9029 3.25339 18.1713 7.25257 18.1713C8.61508 18.1733 9.95005 17.7878 11.1017 17.0596C11.1017 17.1713 11.096 17.2717 11.096 17.3392C11.096 19.4509 9.38304 21.1723 7.28072 21.1723C6.56589 21.1707 5.86607 20.9671 5.26189 20.5851L3.55921 23.5805C4.68196 24.2653 5.9712 24.6288 7.28635 24.6312C11.2855 24.6312 14.5839 21.3618 14.5839 17.3439C14.5839 17.1882 14.5943 16.7294 14.5839 16.584V16.584ZM7.25257 14.7172C5.15119 14.7172 3.43726 12.9967 3.43726 10.885C3.43726 8.77232 5.15026 7.05182 7.25257 7.05182C9.35489 7.05182 11.0679 8.77232 11.0679 10.885C11.0679 12.9967 9.35489 14.7181 7.25257 14.7181V14.7172ZM28.2983 3.8838H24.8385V10.8108C24.8441 11.7949 24.8441 13.4939 24.1218 14.22C23.7765 14.5661 23.3985 14.8795 22.603 14.8795C21.8018 14.8795 21.4238 14.5661 21.0795 14.22C20.3562 13.4929 20.3618 11.7893 20.3665 10.8108V3.8838H16.9077V10.7902C16.8964 12.2143 16.8795 14.8579 18.615 16.6122C19.6329 17.6403 20.8459 18.1657 22.5973 18.1657C24.3497 18.1657 25.5618 17.646 26.5796 16.6122C28.3152 14.8579 28.2983 12.2086 28.287 10.7902L28.2983 3.88286V3.8838ZM47.9039 14.098C47.6263 14.31 46.9527 14.78 46.1909 14.674C45.568 14.5896 45.0624 14.1318 44.9845 12.6008V6.85669H49.0503V3.87254H44.9845V0H41.536V0.759874H41.5304V12.1486C41.5304 13.9592 41.9863 18.1657 46.1853 18.1657C48.3102 18.1328 49.6001 16.9761 50.1404 16.524L50.2127 16.4677L48.1432 13.9085C48.1375 13.9132 47.9931 14.0305 47.9039 14.098V14.098Z" fill="#889494"/>
</svg>
