<svg width="120" height="24" viewBox="0 0 120 24" fill="none" xmlns="http://www.w3.org/2000/svg">
<g clip-path="url(#clip0_81_975)">
<path d="M40.3047 5.18872H46.745C48.2973 5.18872 49.6105 5.43092 50.6847 5.91532C51.6737 6.3311 52.5135 7.03681 53.0933 7.93941C53.6362 8.83108 53.9143 9.85868 53.8954 10.9024C53.9074 11.9509 53.6183 12.9809 53.0627 13.8701C52.4428 14.8095 51.5564 15.5423 50.5172 15.9744C49.3785 16.4934 47.967 16.7522 46.2826 16.7506H40.3047V5.18872ZM46.2166 13.8088C47.2624 13.8088 48.0661 13.5477 48.6276 13.0256C48.9123 12.7495 49.1347 12.4158 49.2799 12.0468C49.4252 11.6778 49.4899 11.282 49.4698 10.8859C49.4873 10.5183 49.4298 10.1509 49.3008 9.80616C49.1719 9.46143 48.9741 9.14655 48.7196 8.88068C48.2163 8.38056 47.459 8.12971 46.4478 8.12814H44.4331V13.8088H46.2166Z" fill="#889494"/>
<path d="M63.5399 16.7325C62.6902 16.5196 61.8775 16.1801 61.1289 15.7252V12.984C61.7824 13.4593 62.5183 13.8096 63.2993 14.0172C64.1536 14.2779 65.0412 14.4138 65.9344 14.4206C66.2427 14.4371 66.5507 14.3839 66.8356 14.2649C67.0384 14.1611 67.1399 14.029 67.1399 13.8922C67.1421 13.8158 67.1285 13.7397 67.1001 13.6687C67.0717 13.5976 67.029 13.5332 66.9747 13.4794C66.7863 13.3344 66.5651 13.238 66.3307 13.1986L64.3491 12.7528C63.2136 12.4885 62.4075 12.1229 61.931 11.6558C61.6918 11.4145 61.5053 11.1261 61.3835 10.809C61.2617 10.4918 61.2071 10.1527 61.2233 9.81335C61.2153 9.19827 61.4394 8.60277 61.8508 8.14548C62.3386 7.62948 62.9537 7.25112 63.6343 7.0485C64.51 6.77323 65.4247 6.64178 66.3425 6.65925C67.1993 6.65121 68.0537 6.75107 68.8856 6.9565C69.5575 7.1157 70.2028 7.37157 70.8012 7.71612V10.3111C70.24 9.98553 69.6367 9.73866 69.0083 9.57744C68.3274 9.39487 67.6254 9.30286 66.9205 9.30379C65.8856 9.30379 65.3682 9.47993 65.3682 9.83222C65.3665 9.91067 65.3879 9.98788 65.4299 10.0542C65.4719 10.1205 65.5325 10.1729 65.6041 10.205C65.8868 10.3252 66.1831 10.4107 66.4864 10.4597L68.1378 10.757C69.2104 10.9457 70.0101 11.276 70.537 11.7478C71.0638 12.2196 71.328 12.91 71.3296 13.8191C71.338 14.2971 71.2211 14.769 70.9906 15.1878C70.7601 15.6066 70.424 15.9578 70.0156 16.2065C69.1459 16.7899 67.9042 17.0809 66.2906 17.0793C65.3627 17.0808 64.4384 16.9642 63.5399 16.7325Z" fill="#889494"/>
<path d="M75.2309 16.3854C74.3481 15.9797 73.604 15.3234 73.0912 14.4981C72.613 13.6888 72.368 12.7629 72.3835 11.8229C72.3693 10.8835 72.6274 9.96008 73.1266 9.16421C73.6588 8.35188 74.4163 7.7124 75.3064 7.32413C76.3887 6.85256 77.5611 6.62387 78.7413 6.65415C80.3926 6.65415 81.7633 7.00093 82.8532 7.6945V10.7212C82.4385 10.4425 81.9856 10.2255 81.5085 10.0772C80.9744 9.90858 80.4172 9.82499 79.8571 9.82947C78.8333 9.82947 78.032 10.0166 77.4532 10.3909C77.193 10.5361 76.976 10.7477 76.8241 11.004C76.6722 11.2603 76.5909 11.5523 76.5885 11.8502C76.5861 12.1482 76.6627 12.4414 76.8104 12.7002C76.9582 12.9589 77.1718 13.1739 77.4296 13.3233C77.9911 13.7023 78.8057 13.8918 79.8736 13.8918C80.4248 13.8931 80.9733 13.8137 81.5014 13.6559C81.9831 13.5178 82.4459 13.3205 82.8791 13.0685V15.9938C81.6026 16.738 80.1454 17.1152 78.6681 17.0837C77.4841 17.116 76.3085 16.8771 75.2309 16.3854Z" fill="#889494"/>
<path d="M86.9663 16.3857C86.0735 15.9781 85.3162 15.3231 84.7841 14.4984C84.2826 13.691 84.0224 12.7571 84.0339 11.8067C84.0179 10.8676 84.2788 9.94455 84.7841 9.15277C85.319 8.34906 86.073 7.71542 86.9568 7.32684C89.1278 6.44607 91.5565 6.44607 93.7274 7.32684C94.6077 7.71245 95.3586 8.34299 95.8907 9.14333C96.3926 9.93803 96.6509 10.8623 96.6338 11.802C96.6455 12.7515 96.3879 13.6848 95.8907 14.4937C95.3644 15.319 94.6107 15.9744 93.7203 16.381C92.6533 16.8386 91.5043 17.0746 90.3433 17.0746C89.1822 17.0746 88.0333 16.8386 86.9663 16.381V16.3857ZM91.984 13.4557C92.1881 13.2451 92.3469 12.995 92.4508 12.7208C92.5546 12.4465 92.6013 12.1539 92.588 11.861C92.6022 11.5708 92.5559 11.2808 92.4519 11.0095C92.3479 10.7382 92.1886 10.4915 91.984 10.2851C91.7621 10.0816 91.5016 9.92477 91.218 9.82387C90.9343 9.72296 90.6332 9.68006 90.3327 9.69772C90.0323 9.68192 89.7317 9.72568 89.4483 9.8265C89.1649 9.92731 88.9042 10.0832 88.6813 10.2851C88.4775 10.4919 88.3189 10.7388 88.2153 11.01C88.1118 11.2812 88.0656 11.571 88.0797 11.861C88.0665 12.1537 88.113 12.4461 88.2165 12.7203C88.3199 12.9944 88.478 13.2447 88.6813 13.4557C88.9021 13.6618 89.1621 13.8212 89.4458 13.9246C89.7295 14.0279 90.0311 14.0731 90.3327 14.0573C90.6344 14.0749 90.9365 14.0305 91.2205 13.9271C91.5045 13.8236 91.7643 13.6632 91.984 13.4557Z" fill="#889494"/>
<path d="M106.558 7.26548V10.8371C106.065 10.5429 105.497 10.3994 104.923 10.4243C104.043 10.4243 103.364 10.6932 102.892 11.2264C102.42 11.7595 102.185 12.5876 102.185 13.7105V16.749H98.1387V7.08855H102.102V10.1554C102.322 9.03243 102.678 8.2044 103.168 7.67124C103.406 7.40907 103.698 7.2016 104.024 7.06313C104.35 6.92466 104.702 6.85848 105.056 6.86916C105.584 6.85474 106.106 6.99229 106.558 7.26548Z" fill="#889494"/>
<path d="M120 4.85889V16.7487H115.954V14.5783C115.649 15.351 115.101 16.0034 114.393 16.4373C113.61 16.8828 112.721 17.1048 111.821 17.0789C110.974 17.0986 110.141 16.8663 109.427 16.4113C108.735 15.9619 108.184 15.3266 107.837 14.5783C107.458 13.7523 107.269 12.8518 107.285 11.9432C107.258 11.0012 107.459 10.0665 107.87 9.21847C108.247 8.44168 108.837 7.78746 109.571 7.33121C110.325 6.87442 111.192 6.63974 112.074 6.65415C113.999 6.65415 115.292 7.49084 115.954 9.16421V4.85889H120ZM115.36 13.3988C115.566 13.1958 115.728 12.9521 115.834 12.6832C115.941 12.4144 115.991 12.1262 115.98 11.8371C115.989 11.5566 115.938 11.2774 115.831 11.018C115.724 10.7586 115.564 10.5248 115.36 10.332C114.897 9.95511 114.318 9.74935 113.721 9.74935C113.124 9.74935 112.546 9.95511 112.083 10.332C111.88 10.5292 111.72 10.7671 111.615 11.03C111.51 11.293 111.461 11.5752 111.472 11.8583C111.462 12.144 111.511 12.4287 111.618 12.694C111.724 12.9594 111.885 13.1995 112.09 13.3988C112.307 13.6002 112.562 13.7564 112.839 13.8581C113.117 13.9598 113.413 14.0049 113.708 13.9909C114.009 14.0075 114.31 13.9637 114.594 13.862C114.878 13.7603 115.138 13.6028 115.36 13.3988Z" fill="#889494"/>
<path d="M25.4074 2.32749C23.4368 1.4253 21.3565 0.785254 19.2195 0.423706C18.9271 0.946451 18.6625 1.48429 18.4269 2.03496C16.1506 1.69195 13.8358 1.69195 11.5595 2.03496C11.3238 1.48434 11.0592 0.946514 10.7669 0.423706C8.62857 0.788307 6.54685 1.42987 4.57426 2.3322C0.658164 8.12611 -0.403428 13.7761 0.127368 19.3459C2.42073 21.0403 4.98766 22.329 7.71657 23.1558C8.33104 22.3294 8.87477 21.4526 9.34199 20.5349C8.45458 20.2034 7.59806 19.7945 6.78237 19.3129C6.99705 19.1572 7.20701 18.9968 7.40989 18.8411C9.78337 19.9572 12.3739 20.536 14.9967 20.536C17.6196 20.536 20.2101 19.9572 22.5836 18.8411C22.7888 19.0086 22.9988 19.169 23.2111 19.3129C22.3938 19.7953 21.5357 20.205 20.6468 20.5372C21.1134 21.4546 21.6572 22.3306 22.2722 23.1558C25.0034 22.3323 27.5723 21.0443 29.8661 19.3483C30.4889 12.8891 28.8021 7.291 25.4074 2.32749ZM10.0143 15.9205C8.53518 15.9205 7.31317 14.5782 7.31317 12.9268C7.31317 11.2755 8.49271 9.92137 10.0096 9.92137C11.5265 9.92137 12.7391 11.2755 12.7131 12.9268C12.6872 14.5782 11.5218 15.9205 10.0143 15.9205ZM19.9791 15.9205C18.4976 15.9205 17.2803 14.5782 17.2803 12.9268C17.2803 11.2755 18.4599 9.92137 19.9791 9.92137C21.4984 9.92137 22.7015 11.2755 22.6756 12.9268C22.6496 14.5782 21.4866 15.9205 19.9791 15.9205Z" fill="#889494"/>
<path d="M57.3061 8.11733C58.4201 8.11733 59.3231 7.30617 59.3231 6.30555C59.3231 5.30493 58.4201 4.49377 57.3061 4.49377C56.1921 4.49377 55.2891 5.30493 55.2891 6.30555C55.2891 7.30617 56.1921 8.11733 57.3061 8.11733Z" fill="#889494"/>
<path d="M55.2871 9.36475C55.9261 9.63329 56.6122 9.77162 57.3053 9.77162C57.9984 9.77162 58.6846 9.63329 59.3235 9.36475V16.8006H55.2871V9.36475Z" fill="#889494"/>
</g>
<defs>
<clipPath id="clip0_81_975">
<rect width="120" height="22.7321" fill="white" transform="translate(0 0.419556)"/>
</clipPath>
</defs>
</svg>
