<svg width="133" height="23" viewBox="0 0 133 23" fill="none" xmlns="http://www.w3.org/2000/svg">
<g clip-path="url(#clip0_73_7051)">
<path fill-rule="evenodd" clip-rule="evenodd" d="M35.7526 0.539917L24.494 22.5494H13.919L18.6307 13.4277H18.4193C14.5322 18.4737 8.73244 21.7956 0.46875 22.5494V13.554C0.46875 13.554 5.75524 13.2417 8.86301 9.97433H0.46875V0.540091H9.90299V8.29962L10.1147 8.29875L13.97 0.540091H21.1048V8.25042L21.3165 8.25008L25.3163 0.539917H35.7526Z" fill="#889494"/>
<path d="M97.1504 20.1205H100.189V2.68018H97.1504V20.1205Z" fill="#889494"/>
<path fill-rule="evenodd" clip-rule="evenodd" d="M80.3963 19.9414C81.0566 20.216 81.7281 20.3533 82.4108 20.3533C83.5385 20.3533 84.5476 20.0788 85.438 19.5296C86.3283 18.9806 87.0184 18.2239 87.5081 17.2592C87.9979 16.2873 88.2426 15.1853 88.2426 13.9537C88.2426 12.722 87.9904 11.6202 87.4859 10.6482C86.9813 9.67619 86.2801 8.92307 85.3823 8.38884C84.4845 7.8472 83.4643 7.58009 82.3216 7.5875C81.5946 7.5875 80.8971 7.72848 80.2293 8.01044C79.5615 8.29239 79.005 8.69306 78.5598 9.21245C78.5255 9.25199 78.4921 9.29192 78.4597 9.33226V2.69043H75.4102V20.1196H78.4374L78.4313 18.4914C78.5096 18.5874 78.5933 18.6812 78.6822 18.7729C79.1645 19.27 79.7359 19.6595 80.3963 19.9414ZM83.5126 17.1257C83.0154 17.4299 82.4478 17.582 81.8096 17.582C81.179 17.582 80.6002 17.4261 80.0735 17.1146C79.5466 16.7954 79.1274 16.3615 78.8157 15.8123C78.5115 15.2633 78.3594 14.64 78.3594 13.9425C78.3521 13.2451 78.5004 12.6218 78.8046 12.0728C79.1163 11.5163 79.5355 11.0859 80.0623 10.7817C80.5891 10.4701 81.1716 10.318 81.8096 10.3254C82.4478 10.318 83.0154 10.4664 83.5126 10.7706C84.0171 11.0674 84.4029 11.494 84.67 12.0505C84.9445 12.5996 85.0818 13.2303 85.0818 13.9425C85.0818 14.6549 84.9445 15.2856 84.67 15.8346C84.4029 16.3837 84.0171 16.814 83.5126 17.1257Z" fill="#889494"/>
<path d="M40.1582 3.73657H43.6307L46.7369 15.0807L50.0414 3.73657H52.9352L56.5189 14.8531L59.5017 3.73657H62.6848L57.9881 20.1195H54.9942L51.3499 9.25958L48.0047 20.1195H44.9774L40.1582 3.73657Z" fill="#889494"/>
<path fill-rule="evenodd" clip-rule="evenodd" d="M67.811 20.4095C66.6014 20.417 65.5107 20.1498 64.5388 19.6082C63.5741 19.0591 62.8137 18.2986 62.2571 17.3266C61.7081 16.3546 61.4336 15.2454 61.4336 13.9988C61.4336 12.7893 61.7156 11.695 62.2795 10.7156C62.8433 9.73614 63.6075 8.9719 64.5721 8.42284C65.5368 7.87377 66.6125 7.59924 67.7997 7.59924C69.1353 7.59924 70.3039 7.89603 71.3056 8.48961C72.3147 9.08319 73.0678 9.92535 73.565 11.0161C74.0695 12.0993 74.2513 13.3421 74.1103 14.7445H64.5769C64.6036 15.3032 64.743 15.8115 64.9951 16.2693C65.2771 16.7738 65.6703 17.167 66.1748 17.449C66.6794 17.731 67.2432 17.8719 67.8666 17.8719C68.3414 17.8645 68.7829 17.7829 69.1909 17.6271C69.5991 17.4639 69.944 17.245 70.226 16.9704C70.5154 16.6959 70.7195 16.3843 70.8382 16.0356H74.0213C73.8283 16.8888 73.4426 17.6494 72.8638 18.3171C72.285 18.9775 71.5579 19.4932 70.6823 19.8642C69.8068 20.2351 68.8497 20.417 67.811 20.4095ZM65.0062 11.6838C64.8284 11.9939 64.7052 12.3278 64.6366 12.6855H70.9561C70.9103 12.2336 70.7707 11.8218 70.5377 11.4501C70.2705 11.0123 69.907 10.6747 69.447 10.4373C68.987 10.1925 68.4676 10.07 67.8888 10.07C67.2729 10.07 66.7128 10.211 66.2082 10.493C65.7037 10.7749 65.303 11.1719 65.0062 11.6838Z" fill="#889494"/>
<path d="M90.4813 7.85482C90.4813 6.86056 90.7075 5.9776 91.1602 5.20594C91.6127 4.42687 92.2472 3.82214 93.0634 3.3918C93.8869 2.95403 94.8479 2.72772 95.9459 2.71289V5.4174C95.4339 5.42482 94.9962 5.53241 94.6327 5.74017C94.2765 5.94051 94.002 6.23359 93.809 6.61941C93.6315 6.97462 93.5356 7.38642 93.5215 7.85482H95.8791V10.4258H93.5197V20.1198H90.4813V10.4258H88.5225V7.85482H90.4813Z" fill="#889494"/>
<path fill-rule="evenodd" clip-rule="evenodd" d="M107.914 20.3869C106.675 20.3869 105.565 20.1161 104.586 19.5745C103.614 19.0254 102.85 18.2686 102.293 17.304C101.744 16.332 101.47 15.2302 101.47 13.9984C101.47 12.7594 101.744 11.6538 102.293 10.6818C102.85 9.70241 103.614 8.94189 104.586 8.40025C105.565 7.8586 106.675 7.58777 107.914 7.58777C109.16 7.58777 110.273 7.8586 111.253 8.40025C112.24 8.94189 113.008 9.69871 113.557 10.6707C114.106 11.6427 114.384 12.752 114.391 13.9984C114.384 15.2302 114.106 16.332 113.557 17.304C113.015 18.2686 112.251 19.0254 111.264 19.5745C110.277 20.1161 109.16 20.3869 107.914 20.3869ZM107.914 17.5934C108.567 17.5934 109.146 17.445 109.65 17.1482C110.155 16.844 110.544 16.4211 110.819 15.8794C111.093 15.3304 111.23 14.7033 111.23 13.9984C111.23 13.2862 111.093 12.6555 110.819 12.1064C110.544 11.5574 110.155 11.1344 109.65 10.8376C109.146 10.5334 108.567 10.3813 107.914 10.3813C107.268 10.3813 106.693 10.5334 106.189 10.8376C105.692 11.1344 105.306 11.5574 105.031 12.1064C104.757 12.6555 104.623 13.2862 104.631 13.9984C104.631 14.7033 104.768 15.3304 105.042 15.8794C105.324 16.4211 105.71 16.844 106.2 17.1482C106.697 17.445 107.268 17.5934 107.914 17.5934Z" fill="#889494"/>
<path d="M117.672 7.85522H114.289L117.951 20.1202H120.911L123.32 12.2865L125.919 20.1202H128.835L132.508 7.85522H129.448L127.364 15.4894L125.062 7.85522H122.102L119.811 15.6575L117.672 7.85522Z" fill="#889494"/>
</g>
<defs>
<clipPath id="clip0_73_7051">
<rect width="133" height="23" fill="white"/>
</clipPath>
</defs>
</svg>
