<svg width="87" height="27" viewBox="0 0 87 27" fill="none" xmlns="http://www.w3.org/2000/svg">
<path d="M33.3252 22.7058V3.52051H36.8475V22.7058H33.3252Z" fill="#889494"/>
<path d="M67.1094 9.66806H70.4731V11.2586C71.1879 9.9868 72.8572 9.29724 74.2869 9.29724C76.0622 9.29724 77.492 10.0661 78.154 11.4701C79.1862 9.8795 80.5646 9.29724 82.2861 9.29724C84.696 9.29724 87.0001 10.7549 87.0001 14.2523V22.7057H83.5836V14.9683C83.5836 13.5636 82.8944 12.504 81.2788 12.504C79.7688 12.504 78.8681 13.6701 78.8681 15.0748V22.7065H75.373V14.9683C75.373 13.5636 74.658 12.504 73.0681 12.504C71.5317 12.504 70.6309 13.6436 70.6309 15.0748V22.7065H67.1094V9.66806Z" fill="#889494"/>
<path d="M44.8074 23.0835C40.8393 23.0835 37.9658 20.1403 37.9658 16.1873C37.9658 12.2972 40.83 9.28406 44.8074 9.28406C48.8042 9.28406 51.649 12.3252 51.649 16.1873C51.649 20.1115 48.7739 23.0835 44.8074 23.0835ZM44.8074 12.4752C42.7608 12.4752 41.096 14.1404 41.096 16.1881C41.096 18.2357 42.7608 19.9009 44.8074 19.9009C46.8541 19.9009 48.518 18.2357 48.518 16.1881C48.518 14.1404 46.8541 12.4752 44.8074 12.4752Z" fill="#889494"/>
<path d="M59.1736 23.0835C55.2055 23.0835 52.332 20.1403 52.332 16.1873C52.332 12.2972 55.1963 9.28406 59.1736 9.28406C63.1704 9.28406 66.0152 12.3252 66.0152 16.1873C66.0152 20.1115 63.1386 23.0835 59.1736 23.0835ZM59.1736 12.4309C57.1036 12.4309 55.4195 14.1163 55.4195 16.1864C55.4195 18.2567 57.1036 19.9421 59.1736 19.9421C61.2435 19.9421 62.9278 18.2567 62.9278 16.1864C62.9269 14.1163 61.2428 12.4309 59.1736 12.4309Z" fill="#889494"/>
<path d="M26.226 11.6547H18.5571L25.1987 7.82018L23.7402 5.2932L17.0986 9.12771L20.9323 2.48664L18.4053 1.02723L14.5716 7.6683V0H11.6544V7.66903L7.81924 1.02723L5.29304 2.4859L9.12745 9.12698L2.48583 5.2932L1.02721 7.81945L7.66882 11.654H0V14.5713H7.66809L1.02721 18.4058L2.48583 20.9328L9.12671 17.099L5.29231 23.7401L7.81924 25.1987L11.6536 18.557V26.226H14.5709V18.5577L18.4046 25.1987L20.9315 23.7401L17.0971 17.0983L23.7387 20.9328L25.1974 18.4058L18.5564 14.572H26.2245V11.6547H26.226ZM13.113 17.0806C10.9133 17.0806 9.13038 15.2978 9.13038 13.098C9.13038 10.8982 10.9133 9.11523 13.113 9.11523C15.3127 9.11523 17.0956 10.8982 17.0956 13.098C17.0956 15.2978 15.3127 17.0806 13.113 17.0806Z" fill="#889494"/>
</svg>
