<svg xmlns="http://www.w3.org/2000/svg" xmlns:xlink="http://www.w3.org/1999/xlink" viewBox="0 0 1920.08 1083"><defs><style>.cls-1{fill:#00112e;}.cls-2{fill:url(#Degradado_sin_nombre_19);}.cls-3{fill:url(#Degradado_sin_nombre_19-2);}.cls-4{opacity:0.26;}.cls-5{fill:url(#Degradado_sin_nombre_26);}.cls-6{fill:url(#Degradado_sin_nombre_32);}.cls-7{fill:#2e3762;opacity:0.22;}.cls-8{fill:#000509;opacity:0.39;}.cls-9{fill:#000b12;opacity:0.5;}.cls-10{fill:none;stroke-width:5px;}.cls-10,.cls-15,.cls-16{stroke:#005691;stroke-miterlimit:10;}.cls-11{fill:#005691;}.cls-12{fill:url(#Degradado_sin_nombre_12);}.cls-13{fill:url(#Degradado_sin_nombre_12-2);}.cls-14{fill:url(#Degradado_sin_nombre_12-3);}.cls-15,.cls-16{stroke-width:4px;}.cls-15{fill:url(#Degradado_sin_nombre_12-4);}.cls-16{fill:url(#Degradado_sin_nombre_12-5);}.cls-17{fill:#4db6ff;}</style><radialGradient id="Degradado_sin_nombre_19" cx="991.67" cy="839.54" r="487.22" gradientTransform="matrix(0, -1.22, 1.41, -0.01, -224.06, 2350.9)" gradientUnits="userSpaceOnUse"><stop offset="0" stop-color="#0056b9"/><stop offset="0.3" stop-color="#004c9d" stop-opacity="0.72"/><stop offset="0.98" stop-color="#003357" stop-opacity="0.02"/><stop offset="1" stop-color="#003255" stop-opacity="0"/></radialGradient><radialGradient id="Degradado_sin_nombre_19-2" cx="994.54" cy="-241.65" r="487.22" gradientTransform="matrix(0, -1.22, 1.41, -0.01, 1308.59, 1028.16)" xlink:href="#Degradado_sin_nombre_19"/><radialGradient id="Degradado_sin_nombre_26" cx="384.82" cy="318.22" fx="258.1738543207215" r="156.49" gradientTransform="translate(-171.27 349.01) rotate(-49.46) scale(1 1.27)" gradientUnits="userSpaceOnUse"><stop offset="0.31" stop-color="#003255" stop-opacity="0"/><stop offset="0.41" stop-color="#003357" stop-opacity="0.02"/><stop offset="0.49" stop-color="#00355d" stop-opacity="0.08"/><stop offset="0.58" stop-color="#003968" stop-opacity="0.19"/><stop offset="0.66" stop-color="#003e76" stop-opacity="0.33"/><stop offset="0.75" stop-color="#004589" stop-opacity="0.52"/><stop offset="0.83" stop-color="#004da0" stop-opacity="0.75"/><stop offset="0.9" stop-color="#0056b9"/></radialGradient><radialGradient id="Degradado_sin_nombre_32" cx="1575.64" cy="453.96" fx="1661.7712298829067" fy="511.2321734486145" r="109.36" gradientTransform="matrix(1, 0.01, -0.02, 1.28, 8.8, -151.02)" gradientUnits="userSpaceOnUse"><stop offset="0.46" stop-color="#003255" stop-opacity="0"/><stop offset="0.52" stop-color="#003357" stop-opacity="0.02"/><stop offset="0.59" stop-color="#00355f" stop-opacity="0.1"/><stop offset="0.67" stop-color="#003a6b" stop-opacity="0.22"/><stop offset="0.75" stop-color="#00407b" stop-opacity="0.38"/><stop offset="0.83" stop-color="#004891" stop-opacity="0.6"/><stop offset="0.91" stop-color="#0051ab" stop-opacity="0.86"/><stop offset="0.95" stop-color="#0056b9"/></radialGradient><linearGradient id="Degradado_sin_nombre_12" x1="640.46" y1="815.26" x2="761.17" y2="745.18" gradientUnits="userSpaceOnUse"><stop offset="0" stop-color="#0070b9"/><stop offset="0.22" stop-color="#006fb8" stop-opacity="0.99"/><stop offset="0.33" stop-color="#006cb5" stop-opacity="0.96"/><stop offset="0.42" stop-color="#0067af" stop-opacity="0.9"/><stop offset="0.5" stop-color="#0060a6" stop-opacity="0.82"/><stop offset="0.57" stop-color="#00579b" stop-opacity="0.71"/><stop offset="0.63" stop-color="#004c8e" stop-opacity="0.58"/><stop offset="0.67" stop-color="#004383" stop-opacity="0.47"/><stop offset="0.88" stop-color="#003255" stop-opacity="0"/></linearGradient><linearGradient id="Degradado_sin_nombre_12-2" x1="1241.06" y1="351.85" x2="1305.83" y2="314.24" xlink:href="#Degradado_sin_nombre_12"/><linearGradient id="Degradado_sin_nombre_12-3" x1="710.34" y1="294.61" x2="791.31" y2="247.6" xlink:href="#Degradado_sin_nombre_12"/><linearGradient id="Degradado_sin_nombre_12-4" x1="1759.45" y1="417.71" x2="2027.33" y2="262.19" xlink:href="#Degradado_sin_nombre_12"/><linearGradient id="Degradado_sin_nombre_12-5" x1="-99.55" y1="815.71" x2="168.33" y2="660.19" xlink:href="#Degradado_sin_nombre_12"/></defs><g id="Capa_3" data-name="Capa 3"><rect class="cls-1" width="1920" height="1080"/><path class="cls-1" d="M960.5,628c-414.07,0-755,197.83-798.73,452H1759.23C1715.46,825.83,1374.57,628,960.5,628Z" transform="translate(0 0)"/><path class="cls-2" d="M959.5,628c-414.07,0-755,197.83-798.73,452H1758.23C1714.46,825.83,1373.57,628,959.5,628Z" transform="translate(0 0)"/><path class="cls-1" d="M960.5,324c341.31,0,632.9-134.41,749.35-324H211.15C327.6,189.59,619.19,324,960.5,324Z" transform="translate(0 0)"/><path class="cls-3" d="M962.5,324c341.31,0,632.9-134.41,749.35-324H213.15C329.6,189.59,621.19,324,962.5,324Z" transform="translate(0 0)"/></g><g id="Capa_4" data-name="Capa 4"><polygon class="cls-4" points="0 285 502 0 0 0 0 285"/><circle class="cls-5" cx="398.5" cy="299.5" r="103.5"/><circle class="cls-6" cx="1561.5" cy="438.5" r="75.5"/><path class="cls-7" d="M1601.12,651.89a163.92,163.92,0,0,1,56.12,19.17c52.5,29.56,73.47,80.57,79.56,97.31,4.2-3.77,45.77-39.89,101.55-26.24,58.77,14.38,80.06,71,81.65,75.45V416Z" transform="translate(0 0)"/><path class="cls-8" d="M0,791c4.68-6.09,33.13-41.88,83.84-46.68,44.76-4.24,76.48,18.54,83.75,24,31-70.7,98.38-116.18,171.68-115.9,78,.3,148.51,52.31,175.87,130.12,6.61-2.49,65.48-23.42,120.39,14.21,47.51,32.57,57.12,85,58.62,94,5.21-3.46,50.12-32.18,103.64-12,53.11,20,70.27,71.41,72.23,77.63,6.1-5.61,37.15-33.05,83.75-30.61,45.81,2.39,73.83,31.95,79.56,38.27,1.79-6.5,18.27-62.41,74.32-85.29,58.1-23.72,108.13,8.7,113.06,12,1-6.14,11.17-64.08,63.86-91.85,38.43-20.26,85-16.82,121.43,8.75,2.13-17.69,10.88-71.58,54.44-112.63,53.11-50,134.68-59,196.8-24.05,52.5,29.56,73.47,80.57,79.56,97.31,4.2-3.77,45.77-39.89,101.55-26.24,58.77,14.38,80.06,71,81.65,75.45V1080H0Z" transform="translate(0 0)"/></g><g id="Capa_5" data-name="Capa 5"><path class="cls-9" d="M0,823c39.84,1.38,62.56,14.18,76,26,27.43,24.11,47.52,71.57,46,69,42.65-23.89,94.52-23.22,135,2,54.1,33.71,60.4,94.15,61,101a61,61,0,0,1,40-4,60.1,60.1,0,0,1,28,16c35.34-38.36,88.74-53.59,137-39,63.5,19.2,85,80,87,86H0Z" transform="translate(0 0)"/><path class="cls-9" d="M1920.08,823.18c-39.84,1.36-62.57,14.15-76,26-27.44,24.09-47.56,71.54-46,69-42.64-23.91-94.5-23.28-135,1.92-54.12,33.67-60.46,94.12-61.06,101a61.06,61.06,0,0,0-40-4,60.22,60.22,0,0,0-28,16c-35.32-38.38-88.71-53.64-137-39.08-63.51,19.16-85,80-87,85.95l610,.36Z" transform="translate(0 0)"/><rect class="cls-10" x="927.47" y="222.28" width="70.44" height="70.44" rx="13.92" transform="translate(464.05 -605.3) rotate(45)"/><rect class="cls-11" x="952.26" y="427.51" width="20.86" height="20.86" rx="2.02" transform="translate(591.63 -552.45) rotate(45)"/></g><g id="Capa_6" data-name="Capa 6"><path class="cls-12" d="M765,741c-69.39,37.71-119.3,64.83-126.67,68.43-.47.23-7,3.5-7.33,7.33a6.25,6.25,0,0,0,.91,3.67,5.57,5.57,0,0,0,1.84,1.84c2.37,1.41,5.2.42,6.42,0a13.53,13.53,0,0,0,4.51-2.69l.07-.07C646,818.34,682.14,794.7,765,741Z" transform="translate(0 0)"/><path class="cls-13" d="M1307.89,312c-37.23,20.24-64,34.79-68,36.72-.25.12-3.73,1.88-3.93,3.93a3.3,3.3,0,0,0,.49,2,3,3,0,0,0,1,1,4.17,4.17,0,0,0,3.45,0,7.13,7.13,0,0,0,2.42-1.45l0,0C1244,353.5,1263.43,340.81,1307.89,312Z" transform="translate(0 0)"/><path class="cls-14" d="M794,245c-46.62,25.19-80.18,43.32-85.1,45.73-.32.15-4.65,2.34-4.91,4.9a4.13,4.13,0,0,0,.61,2.45,3.73,3.73,0,0,0,1.23,1.23c1.59.95,3.47.29,4.29,0a8.84,8.84,0,0,0,3-1.8l.05,0C714,296.68,738.3,280.89,794,245Z" transform="translate(0 0)"/><path class="cls-15" d="M1889,0V685" transform="translate(0 0)"/><path class="cls-16" d="M30,398v685" transform="translate(0 0)"/><path class="cls-17" d="M1486.76,914.24c3.86,0,3.87-6,0-6s-3.87,6,0,6Z" transform="translate(0 0)"/><path class="cls-17" d="M1282.28,904.1a1.5,1.5,0,0,0,0-3,1.5,1.5,0,0,0,0,3Z" transform="translate(0 0)"/><path class="cls-17" d="M1316.84,722.66a1.5,1.5,0,0,0,0-3,1.5,1.5,0,0,0,0,3Z" transform="translate(0 0)"/><path class="cls-17" d="M1627.88,552.44a1.2,1.2,0,0,0,0-2.4,1.2,1.2,0,0,0,0,2.4Z" transform="translate(0 0)"/><path class="cls-17" d="M1314,463.16a1.2,1.2,0,0,0,0-2.4,1.2,1.2,0,0,0,0,2.4Z" transform="translate(0 0)"/><path class="cls-17" d="M1414.76,175.16a1.2,1.2,0,0,0,0-2.4,1.2,1.2,0,0,0,0,2.4Z" transform="translate(0 0)"/><path class="cls-17" d="M1463.72,313.4a1.2,1.2,0,0,0,0-2.4,1.2,1.2,0,0,0,0,2.4Z" transform="translate(0 0)"/><path class="cls-17" d="M1665.32,54.2a1.2,1.2,0,0,0,0-2.4,1.2,1.2,0,0,0,0,2.4Z" transform="translate(0 0)"/><path class="cls-17" d="M1383.08,28.28a1.2,1.2,0,0,0,0-2.4,1.2,1.2,0,0,0,0,2.4Z" transform="translate(0 0)"/><path class="cls-17" d="M530.6,201.08a1.2,1.2,0,0,0,0-2.4,1.2,1.2,0,0,0,0,2.4Z" transform="translate(0 0)"/><path class="cls-17" d="M619.88,336.44a1.2,1.2,0,0,0,0-2.4,1.2,1.2,0,0,0,0,2.4Z" transform="translate(0 0)"/><path class="cls-17" d="M346.28,520.76a1.2,1.2,0,0,0,0-2.4,1.2,1.2,0,0,0,0,2.4Z" transform="translate(0 0)"/><path class="cls-17" d="M677.48,532.28a1.2,1.2,0,0,0,0-2.4,1.2,1.2,0,0,0,0,2.4Z" transform="translate(0 0)"/><path class="cls-17" d="M401,708a1.2,1.2,0,0,0,0-2.4,1.2,1.2,0,0,0,0,2.4Z" transform="translate(0 0)"/><path class="cls-17" d="M524.84,906.68a1.2,1.2,0,0,0,0-2.4,1.2,1.2,0,0,0,0,2.4Z" transform="translate(0 0)"/><path class="cls-17" d="M61.16,284.6a1.2,1.2,0,0,0,0-2.4,1.2,1.2,0,0,0,0,2.4Z" transform="translate(0 0)"/></g></svg>