<?xml version="1.0" encoding="utf-8"?>
<!-- Generator: Adobe Illustrator 24.1.0, SVG Export Plug-In . SVG Version: 6.00 Build 0)  -->
<svg version="1.1" id="Capa_1" xmlns="http://www.w3.org/2000/svg" xmlns:xlink="http://www.w3.org/1999/xlink" x="0px" y="0px"
	 viewBox="0 0 1920.1 1083" style="enable-background:new 0 0 1920.1 1083;" xml:space="preserve">
<style type="text/css">
	.st0{fill:#00112E;}
	.st1{fill:url(#SVGID_1_);}
	.st2{fill:url(#SVGID_2_);}
	.st3{fill:url(#SVGID_3_);}
	.st4{fill:url(#SVGID_4_);}
	.st5{fill:url(#SVGID_5_);}
	.st6{fill:url(#SVGID_6_);stroke:#005691;stroke-width:4;stroke-miterlimit:10;}
	.st7{fill:url(#SVGID_7_);stroke:#005691;stroke-width:4;stroke-miterlimit:10;}
	.st8{fill:#4DB6FF;}
</style>
<g id="Capa_3">
	<rect class="st0" width="1920" height="1080"/>
	<path class="st0" d="M960.5,628c-414.1,0-755,197.8-798.7,452h1597.5C1715.5,825.8,1374.6,628,960.5,628z"/>
	
		<radialGradient id="SVGID_1_" cx="1769.144" cy="562.4255" r="487.1439" gradientTransform="matrix(0 -1.22 -1.41 1.000000e-02 1752.52 3285.3999)" gradientUnits="userSpaceOnUse">
		<stop  offset="0" style="stop-color:#0056B9"/>
		<stop  offset="0.3" style="stop-color:#004C9D;stop-opacity:0.72"/>
		<stop  offset="0.98" style="stop-color:#003357;stop-opacity:2.000000e-02"/>
		<stop  offset="1" style="stop-color:#003255;stop-opacity:0"/>
	</radialGradient>
	<path class="st1" d="M959.5,628c-414.1,0-755,197.8-798.7,452h1597.5C1714.5,825.8,1373.6,628,959.5,628z"/>
	<path class="st0" d="M960.5,324c341.3,0,632.9-134.4,749.3-324H211.1C327.6,189.6,619.2,324,960.5,324z"/>
	
		<radialGradient id="SVGID_2_" cx="1772.014" cy="1643.4797" r="487.22" gradientTransform="matrix(0 -1.22 -1.41 1.000000e-02 3285.1699 1962.66)" gradientUnits="userSpaceOnUse">
		<stop  offset="0" style="stop-color:#0056B9"/>
		<stop  offset="0.3" style="stop-color:#004C9D;stop-opacity:0.72"/>
		<stop  offset="0.98" style="stop-color:#003357;stop-opacity:2.000000e-02"/>
		<stop  offset="1" style="stop-color:#003255;stop-opacity:0"/>
	</radialGradient>
	<path class="st2" d="M962.5,324c341.3,0,632.9-134.4,749.3-324H213.1C329.6,189.6,621.2,324,962.5,324z"/>
</g>
<g id="Capa_6">
	
		<linearGradient id="SVGID_3_" gradientUnits="userSpaceOnUse" x1="640.4575" y1="268.7444" x2="761.1674" y2="338.8244" gradientTransform="matrix(1 0 0 -1 0 1084)">
		<stop  offset="0" style="stop-color:#0070B9"/>
		<stop  offset="0.22" style="stop-color:#006FB8;stop-opacity:0.99"/>
		<stop  offset="0.33" style="stop-color:#006CB5;stop-opacity:0.96"/>
		<stop  offset="0.42" style="stop-color:#0067AF;stop-opacity:0.9"/>
		<stop  offset="0.5" style="stop-color:#0060A6;stop-opacity:0.82"/>
		<stop  offset="0.57" style="stop-color:#00579B;stop-opacity:0.71"/>
		<stop  offset="0.63" style="stop-color:#004C8E;stop-opacity:0.58"/>
		<stop  offset="0.67" style="stop-color:#004383;stop-opacity:0.47"/>
		<stop  offset="0.88" style="stop-color:#003255;stop-opacity:0"/>
	</linearGradient>
	<path class="st3" d="M765,741c-69.4,37.7-119.3,64.8-126.7,68.4c-0.5,0.2-7,3.5-7.3,7.3c-0.1,1.3,0.2,2.6,0.9,3.7
		c0.5,0.8,1.1,1.4,1.8,1.8c2.4,1.4,5.2,0.4,6.4,0c1.7-0.6,3.2-1.5,4.5-2.7l0.1-0.1C646,818.3,682.1,794.7,765,741z"/>
	
		<linearGradient id="SVGID_4_" gradientUnits="userSpaceOnUse" x1="1241.063" y1="732.1449" x2="1305.8329" y2="769.7549" gradientTransform="matrix(1 0 0 -1 0 1084)">
		<stop  offset="0" style="stop-color:#0070B9"/>
		<stop  offset="0.22" style="stop-color:#006FB8;stop-opacity:0.99"/>
		<stop  offset="0.33" style="stop-color:#006CB5;stop-opacity:0.96"/>
		<stop  offset="0.42" style="stop-color:#0067AF;stop-opacity:0.9"/>
		<stop  offset="0.5" style="stop-color:#0060A6;stop-opacity:0.82"/>
		<stop  offset="0.57" style="stop-color:#00579B;stop-opacity:0.71"/>
		<stop  offset="0.63" style="stop-color:#004C8E;stop-opacity:0.58"/>
		<stop  offset="0.67" style="stop-color:#004383;stop-opacity:0.47"/>
		<stop  offset="0.88" style="stop-color:#003255;stop-opacity:0"/>
	</linearGradient>
	<path class="st4" d="M1307.9,312c-37.2,20.2-64,34.8-68,36.7c-0.3,0.1-3.7,1.9-3.9,3.9c-0.1,0.7,0.1,1.4,0.5,2c0.2,0.4,0.6,0.8,1,1
		c1.1,0.5,2.4,0.5,3.4,0c0.9-0.3,1.7-0.8,2.4-1.5l0,0C1244,353.5,1263.4,340.8,1307.9,312z"/>
	
		<linearGradient id="SVGID_5_" gradientUnits="userSpaceOnUse" x1="710.3393" y1="789.3913" x2="791.3093" y2="836.4013" gradientTransform="matrix(1 0 0 -1 0 1084)">
		<stop  offset="0" style="stop-color:#0070B9"/>
		<stop  offset="0.22" style="stop-color:#006FB8;stop-opacity:0.99"/>
		<stop  offset="0.33" style="stop-color:#006CB5;stop-opacity:0.96"/>
		<stop  offset="0.42" style="stop-color:#0067AF;stop-opacity:0.9"/>
		<stop  offset="0.5" style="stop-color:#0060A6;stop-opacity:0.82"/>
		<stop  offset="0.57" style="stop-color:#00579B;stop-opacity:0.71"/>
		<stop  offset="0.63" style="stop-color:#004C8E;stop-opacity:0.58"/>
		<stop  offset="0.67" style="stop-color:#004383;stop-opacity:0.47"/>
		<stop  offset="0.88" style="stop-color:#003255;stop-opacity:0"/>
	</linearGradient>
	<path class="st5" d="M794,245c-46.6,25.2-80.2,43.3-85.1,45.7c-0.3,0.1-4.7,2.3-4.9,4.9c-0.1,0.9,0.2,1.7,0.6,2.5
		c0.3,0.5,0.7,0.9,1.2,1.2c1.6,1,3.5,0.3,4.3,0c1.1-0.4,2.1-1,3-1.8h0C714,296.7,738.3,280.9,794,245z"/>
	
		<linearGradient id="SVGID_6_" gradientUnits="userSpaceOnUse" x1="1759.4506" y1="666.289" x2="2027.3306" y2="821.809" gradientTransform="matrix(1 0 0 -1 0 1084)">
		<stop  offset="0" style="stop-color:#0070B9"/>
		<stop  offset="0.22" style="stop-color:#006FB8;stop-opacity:0.99"/>
		<stop  offset="0.33" style="stop-color:#006CB5;stop-opacity:0.96"/>
		<stop  offset="0.42" style="stop-color:#0067AF;stop-opacity:0.9"/>
		<stop  offset="0.5" style="stop-color:#0060A6;stop-opacity:0.82"/>
		<stop  offset="0.57" style="stop-color:#00579B;stop-opacity:0.71"/>
		<stop  offset="0.63" style="stop-color:#004C8E;stop-opacity:0.58"/>
		<stop  offset="0.67" style="stop-color:#004383;stop-opacity:0.47"/>
		<stop  offset="0.88" style="stop-color:#003255;stop-opacity:0"/>
	</linearGradient>
	<path class="st6" d="M1889,0v685"/>
	
		<linearGradient id="SVGID_7_" gradientUnits="userSpaceOnUse" x1="-99.5494" y1="268.289" x2="168.3306" y2="423.809" gradientTransform="matrix(1 0 0 -1 0 1084)">
		<stop  offset="0" style="stop-color:#0070B9"/>
		<stop  offset="0.22" style="stop-color:#006FB8;stop-opacity:0.99"/>
		<stop  offset="0.33" style="stop-color:#006CB5;stop-opacity:0.96"/>
		<stop  offset="0.42" style="stop-color:#0067AF;stop-opacity:0.9"/>
		<stop  offset="0.5" style="stop-color:#0060A6;stop-opacity:0.82"/>
		<stop  offset="0.57" style="stop-color:#00579B;stop-opacity:0.71"/>
		<stop  offset="0.63" style="stop-color:#004C8E;stop-opacity:0.58"/>
		<stop  offset="0.67" style="stop-color:#004383;stop-opacity:0.47"/>
		<stop  offset="0.88" style="stop-color:#003255;stop-opacity:0"/>
	</linearGradient>
	<path class="st7" d="M30,398v685"/>
	<path class="st8" d="M1486.8,914.2c3.9,0,3.9-6,0-6S1482.9,914.2,1486.8,914.2z"/>
	<path class="st8" d="M1282.3,904.1c0.8,0,1.5-0.7,1.5-1.5s-0.7-1.5-1.5-1.5s-1.5,0.7-1.5,1.5S1281.5,904.1,1282.3,904.1z"/>
	<path class="st8" d="M1316.8,722.7c0.8,0,1.5-0.7,1.5-1.5s-0.7-1.5-1.5-1.5s-1.5,0.7-1.5,1.5S1316,722.7,1316.8,722.7z"/>
	<path class="st8" d="M1627.9,552.4c0.7,0,1.2-0.5,1.2-1.2s-0.5-1.2-1.2-1.2s-1.2,0.5-1.2,1.2S1627.2,552.4,1627.9,552.4z"/>
	<path class="st8" d="M1314,463.2c0.7,0,1.2-0.5,1.2-1.2c0-0.7-0.5-1.2-1.2-1.2c-0.7,0-1.2,0.5-1.2,1.2
		C1312.8,462.6,1313.3,463.2,1314,463.2z"/>
	<path class="st8" d="M1414.8,175.2c0.7,0,1.2-0.5,1.2-1.2c0-0.7-0.5-1.2-1.2-1.2c-0.7,0-1.2,0.5-1.2,1.2
		C1413.6,174.6,1414.1,175.2,1414.8,175.2z"/>
	<path class="st8" d="M1463.7,313.4c0.7,0,1.2-0.5,1.2-1.2c0-0.7-0.5-1.2-1.2-1.2c-0.7,0-1.2,0.5-1.2,1.2
		C1462.5,312.9,1463.1,313.4,1463.7,313.4z"/>
	<path class="st8" d="M1665.3,54.2c0.7,0,1.2-0.5,1.2-1.2s-0.5-1.2-1.2-1.2s-1.2,0.5-1.2,1.2S1664.7,54.2,1665.3,54.2L1665.3,54.2z"
		/>
	<path class="st8" d="M1383.1,28.3c0.7,0,1.2-0.5,1.2-1.2c0-0.7-0.5-1.2-1.2-1.2c-0.7,0-1.2,0.5-1.2,1.2
		C1381.9,27.7,1382.4,28.3,1383.1,28.3z"/>
	<path class="st8" d="M530.6,201.1c0.7,0,1.2-0.5,1.2-1.2c0-0.7-0.5-1.2-1.2-1.2c-0.7,0-1.2,0.5-1.2,1.2
		C529.4,200.5,529.9,201.1,530.6,201.1z"/>
	<path class="st8" d="M619.9,336.4c0.7,0,1.2-0.5,1.2-1.2c0-0.7-0.5-1.2-1.2-1.2c-0.7,0-1.2,0.5-1.2,1.2
		C618.7,335.9,619.2,336.4,619.9,336.4z"/>
	<path class="st8" d="M346.3,520.8c0.7,0,1.2-0.5,1.2-1.2s-0.5-1.2-1.2-1.2s-1.2,0.5-1.2,1.2S345.6,520.8,346.3,520.8z"/>
	<path class="st8" d="M677.5,532.3c0.7,0,1.2-0.5,1.2-1.2s-0.5-1.2-1.2-1.2s-1.2,0.5-1.2,1.2S676.8,532.3,677.5,532.3z"/>
	<path class="st8" d="M401,708c0.7,0,1.2-0.5,1.2-1.2s-0.5-1.2-1.2-1.2s-1.2,0.5-1.2,1.2S400.3,708,401,708z"/>
	<path class="st8" d="M524.8,906.7c0.7,0,1.2-0.5,1.2-1.2s-0.5-1.2-1.2-1.2s-1.2,0.5-1.2,1.2S524.2,906.7,524.8,906.7L524.8,906.7z"
		/>
	<path class="st8" d="M61.2,284.6c0.7,0,1.2-0.5,1.2-1.2c0-0.7-0.5-1.2-1.2-1.2c-0.7,0-1.2,0.5-1.2,1.2
		C60,284.1,60.5,284.6,61.2,284.6z"/>
</g>
</svg>
